<?xml version="1.0" encoding="UTF-8"?>
<svg version="1.1" xmlns="http://www.w3.org/2000/svg" width="512" height="512">
<path d="M0 0 C1.42943998 -0.00346717 2.85887727 -0.00823876 4.2883091 -0.01418173 C8.17047883 -0.0265762 12.05242416 -0.02057482 15.93459415 -0.01122308 C20.1391703 -0.00438494 24.34371009 -0.01493723 28.54827881 -0.02316284 C36.7669518 -0.03645193 44.98554226 -0.03364405 53.20421839 -0.02492492 C59.88804453 -0.0181297 66.57184766 -0.01723958 73.25567627 -0.02049637 C74.68654396 -0.02118592 74.68654396 -0.02118592 76.14631808 -0.0218894 C78.0846111 -0.02284864 80.02290412 -0.02382128 81.96119714 -0.02480717 C100.10560684 -0.03334693 118.24997095 -0.02354917 136.39437318 -0.00740607 C151.93855676 0.00599582 167.4826731 0.00366733 183.02685547 -0.01016235 C201.10956363 -0.0262432 219.1922319 -0.03252309 237.27494621 -0.02332556 C239.20581944 -0.02236999 241.13669268 -0.02142687 243.06756592 -0.02049637 C244.4923359 -0.01980213 244.4923359 -0.01980213 245.94588912 -0.01909386 C252.61605583 -0.01651148 259.28619709 -0.0208587 265.95635986 -0.02793503 C274.09312082 -0.03637811 282.22979504 -0.03401114 290.36654615 -0.0180928 C294.51225269 -0.0102477 298.65781497 -0.00705368 302.8035202 -0.01704025 C306.6082764 -0.02606641 310.41275644 -0.02092605 314.21748805 -0.0051076 C316.22480423 -0.00023877 318.23214002 -0.00988488 320.2394352 -0.02027929 C346.64306573 0.14822306 369.74836824 10.74978976 388.16162109 29.38095093 C388.88865234 30.09766968 389.61568359 30.81438843 390.36474609 31.55282593 C407.58096678 49.58241137 414.66903509 73.79767424 414.54257202 98.21932983 C414.54603919 99.64876981 414.55081078 101.0782071 414.55675375 102.50763893 C414.56914822 106.38980867 414.56314684 110.271754 414.5537951 114.15392399 C414.54695696 118.35850014 414.55750925 122.56303992 414.56573486 126.76760864 C414.57902395 134.98628163 414.57621607 143.20487209 414.56749694 151.42354822 C414.56070172 158.10737436 414.5598116 164.79117749 414.56306839 171.4750061 C414.56352809 172.4289179 414.56398779 173.3828297 414.56446142 174.36564791 C414.56542066 176.30394094 414.56639331 178.24223396 414.56737919 180.18052697 C414.57591895 198.32493667 414.56612119 216.46930079 414.54997809 234.61370301 C414.5365762 250.15788659 414.5389047 265.70200294 414.55273438 281.2461853 C414.56881522 299.32889346 414.57509511 317.41156174 414.56589758 335.49427605 C414.56494201 337.42514928 414.5639989 339.35602251 414.56306839 341.28689575 C414.56260556 342.23674241 414.56214274 343.18658906 414.56166589 344.16521895 C414.5590835 350.83538566 414.56343072 357.50552693 414.57050705 364.1756897 C414.57895013 372.31245066 414.57658316 380.44912487 414.56066482 388.58587599 C414.55281972 392.73158252 414.5496257 396.87714481 414.55961227 401.02285004 C414.56863843 404.82760624 414.56349808 408.63208627 414.54767962 412.43681788 C414.54281079 414.44413407 414.5524569 416.45146986 414.56285131 418.45876503 C414.39434896 444.86239556 403.79278226 467.96769808 385.16162109 486.38095093 C384.08654297 487.4714978 384.08654297 487.4714978 382.98974609 488.58407593 C364.96016065 505.80029662 340.74489778 512.88836493 316.32324219 512.76190186 C314.89380221 512.76536902 313.46436492 512.77014062 312.03493309 512.77608359 C308.15276336 512.78847806 304.27081803 512.78247668 300.38864803 512.77312493 C296.18407189 512.76628679 291.9795321 512.77683908 287.77496338 512.7850647 C279.55629039 512.79835378 271.33769993 512.79554591 263.1190238 512.78682677 C256.43519766 512.78003155 249.75139453 512.77914143 243.06756592 512.78239822 C241.63669822 512.78308777 241.63669822 512.78308777 240.17692411 512.78379125 C238.23863108 512.7847505 236.30033806 512.78572314 234.36204505 512.78670903 C216.21763535 512.79524879 198.07327123 512.78545103 179.92886901 512.76930793 C164.38468543 512.75590604 148.84056908 512.75823453 133.29638672 512.77206421 C115.21367856 512.78814505 97.13101029 512.79442494 79.04829597 512.78522742 C77.11742275 512.78427184 75.18654951 512.78332873 73.25567627 512.78239822 C71.83090629 512.78170398 71.83090629 512.78170398 70.37735307 512.78099572 C63.70718636 512.77841334 57.0370451 512.78276056 50.36688232 512.78983688 C42.23012136 512.79827996 34.09344715 512.79591299 25.95669603 512.77999465 C21.8109895 512.77214956 17.66542721 512.76895554 13.51972198 512.77894211 C9.71496579 512.78796826 5.91048575 512.78282791 2.10575414 512.76700945 C0.09843796 512.76214062 -1.90889784 512.77178673 -3.91619301 512.78218114 C-30.31982354 512.6136788 -53.42512606 502.0121121 -71.83837891 483.38095093 C-72.56541016 482.66423218 -73.29244141 481.94751343 -74.04150391 481.20907593 C-91.2577246 463.17949048 -98.3457929 438.96422761 -98.21932983 414.54257202 C-98.222797 413.11313204 -98.2275686 411.68369475 -98.23351157 410.25426292 C-98.24590603 406.37209319 -98.23990465 402.49014786 -98.23055291 398.60797787 C-98.22371477 394.40340172 -98.23426706 390.19886193 -98.24249268 385.99429321 C-98.25578176 377.77562022 -98.25297389 369.55702976 -98.24425475 361.33835363 C-98.23745953 354.65452749 -98.23656941 347.97072436 -98.2398262 341.28689575 C-98.2402859 340.33298396 -98.2407456 339.37907216 -98.24121923 338.39625394 C-98.24217848 336.45796092 -98.24315112 334.5196679 -98.244137 332.58137488 C-98.25267677 314.43696518 -98.242879 296.29260107 -98.2267359 278.14819884 C-98.21333402 262.60401527 -98.21566251 247.05989892 -98.22949219 231.51571655 C-98.24557303 213.4330084 -98.25185292 195.35034012 -98.2426554 177.26762581 C-98.24169982 175.33675258 -98.24075671 173.40587934 -98.2398262 171.4750061 C-98.23936338 170.52515945 -98.23890055 169.57531279 -98.2384237 168.59668291 C-98.23584132 161.92651619 -98.24018854 155.25637493 -98.24726486 148.58621216 C-98.25570794 140.4494512 -98.25334097 132.31277698 -98.23742263 124.17602587 C-98.22957753 120.03031933 -98.22638352 115.88475705 -98.23637009 111.73905182 C-98.24539624 107.93429562 -98.24025589 104.12981558 -98.22443743 100.32508397 C-98.2195686 98.31776779 -98.22921471 96.310432 -98.23960912 94.30313683 C-98.07110678 67.89950629 -87.46954007 44.79420378 -68.83837891 26.38095093 C-68.12166016 25.65391968 -67.40494141 24.92688843 -66.66650391 24.17782593 C-48.63691846 6.96160524 -24.42165559 -0.12646307 0 0 Z M194.29443359 120.74423218 C181.80925834 136.17920158 177.79085182 155.00258723 177.96630859 174.48641968 C177.97055344 176.29424675 177.97055344 176.29424675 177.97488403 178.13859558 C177.9859859 181.94865285 178.01107175 185.75846596 178.03662109 189.56845093 C178.04666381 192.16805688 178.05578739 194.76766656 178.06396484 197.36727905 C178.08418193 203.70533704 178.12335025 210.04287404 178.16162109 216.38095093 C167.93162109 216.38095093 157.70162109 216.38095093 147.16162109 216.38095093 C147.16162109 235.85095093 147.16162109 255.32095093 147.16162109 275.38095093 C157.39162109 275.38095093 167.62162109 275.38095093 178.16162109 275.38095093 C178.16162109 334.12095093 178.16162109 392.86095093 178.16162109 453.38095093 C204.23162109 453.38095093 230.30162109 453.38095093 257.16162109 453.38095093 C257.16162109 394.64095093 257.16162109 335.90095093 257.16162109 275.38095093 C273.00162109 275.38095093 288.84162109 275.38095093 305.16162109 275.38095093 C306.01811113 267.62155908 306.87329482 259.86204681 307.72509766 252.10214233 C308.01533549 249.46175724 308.30634696 246.82145707 308.59814453 244.1812439 C309.01716754 240.38865813 309.43341735 236.59577677 309.84912109 232.80282593 C309.98036377 231.62041321 310.11160645 230.43800049 310.24682617 229.21975708 C310.36695068 228.11891785 310.4870752 227.01807861 310.61083984 225.88388062 C310.7174292 224.91569397 310.82401855 223.94750732 310.93383789 222.94998169 C311.22050013 220.14674094 311.22050013 220.14674094 311.16162109 216.38095093 C293.34162109 216.38095093 275.52162109 216.38095093 257.16162109 216.38095093 C257.26474609 209.10032593 257.36787109 201.81970093 257.47412109 194.31845093 C257.49901611 192.03286255 257.52391113 189.74727417 257.54956055 187.39242554 C257.58187022 185.56436146 257.61524672 183.73631579 257.64990234 181.90829468 C257.65926819 180.50456604 257.65926819 180.50456604 257.66882324 179.07247925 C257.81581844 172.3436627 258.51440298 167.02816905 263.47412109 162.06845093 C273.22874946 156.47808778 288.57506797 157.97520277 299.53662109 157.75595093 C307.76599609 157.57032593 307.76599609 157.57032593 316.16162109 157.38095093 C316.16162109 138.24095093 316.16162109 119.10095093 316.16162109 99.38095093 C303.80421925 99.2933982 303.80421925 99.2933982 291.44677734 99.23446655 C286.391503 99.21667447 281.33639475 99.19584904 276.28125 99.15463257 C272.19632042 99.12154287 268.11156943 99.10399594 264.02651596 99.0963192 C262.4839383 99.09086309 260.94136811 99.08021549 259.39886856 99.06376076 C235.68615717 98.82134036 211.35774576 102.73295823 194.29443359 120.74423218 Z " fill="#FFFFFF" transform="translate(97.83837890625,-0.380950927734375)"/>
</svg>
